<?xml version="1.0" encoding="UTF-8"?>
<svg version="1.1" viewBox="0 0 2048 1076" width="900" height="473" xmlns="http://www.w3.org/2000/svg">
<path transform="translate(0)" d="m0 0h2048v1076h-2048z" fill="#FAF9F9"/>
<path transform="translate(1e3 38)" d="m0 0h52l41 4 31 5 30 7 27 8 24 8 30 13 34 17 25 15 27 18 26 20 15 13 10 9 12 11 16 17 11 12 9 11 14 18 12 17 12 19 13 22 14 27 9 19 15 39 8 28 8 34 5 32 3 30 1 19v30l-1 30-2 23-7 43-6 26-12 39-12 30-9 20-10 19-6 11-9 16-12 18-14 20-11 14-13 16-10 11-7 8-25 25-8 7-15 13-13 10-19 14-17 11-24 14-23 12-17 8-27 11-24 8h-12l-9-4-5-4-5-10-1-137-1-30-3-21-6-20-10-19-8-10-5-6 1-1 39-6 28-6 24-8 23-10 22-12 15-10 10-8 15-14 9-11 7-10 10-18 8-17 11-34 5-24 3-23 1-13v-47l-3-24-5-19-7-19-8-17-11-18-13-16-4-5 3-10 5-19 2-18v-22l-3-24-6-23-6-17-3-3-7-1-16 1-19 5-22 8-24 11-19 10-19 12-12 7-40-9-25-4-31-3-31-1-33 1-30 3-35 6-25 6-5 1-18-11-13-8-15-8-25-11-26-10-15-4-6-1h-22l-4 8-6 20-5 24-1 9v33l4 22 5 17 1 3-12 14-12 18-8 14-8 19-6 19-4 21-2 21v24l2 31 3 21 6 27 9 27 9 20 8 15 10 14 11 13 10 10 17 13 16 10 28 14 21 8 26 7 26 5 26 4 3 1-2 4-8 9-8 13-6 14-5 17-2 11-5 3-16 6-21 4-9 1h-27l-18-5-15-8-14-11-9-9-11-15-9-15-7-9-12-12-16-11-15-8-16-4-6-1h-9l-9 2-5 3-1 4 6 9 5 5 7 6 14 9 6 5v2h2l9 11 10 14 10 18 12 28 7 12 11 12 8 7 13 8 16 7 24 5 15 2 13 1h21l29-3 10-1 1 64v37l-3 8-7 8-9 4h-14l-15-5-28-11-28-13-25-13-23-14-16-11-19-14-13-11-11-9-16-15-24-24-9-11-9-10-13-17-10-13-17-26-12-20-12-23-14-29-11-29-8-25-8-32-6-33-3-27-2-27v-49l2-31 4-30 7-35 8-30 11-32 13-31 10-21 13-23 11-18 8-12 11-16 9-12 14-17 9-10 11-12 9-10 16-15 8-7 14-12 13-10 15-11 18-12 19-12 24-13 15-8 28-12 29-11 35-10 27-6 23-4 36-4z" fill="#313131"/>
</svg>
