<?xml version="1.0" encoding="UTF-8"?>
<svg version="1.1" xmlns="http://www.w3.org/2000/svg" width="400" height="400">
<path d="M0 0 C132 0 264 0 400 0 C400 132 400 264 400 400 C268 400 136 400 0 400 C0 268 0 136 0 0 Z " fill="#0173AF" transform="translate(0,0)"/>
<path d="M0 0 C132 0 264 0 400 0 C400 132 400 264 400 400 C268 400 136 400 0 400 C0 268 0 136 0 0 Z M52.0625 60.3125 C46.38295314 68.43033267 44.39552644 76.77846662 44.50552368 86.56338501 C44.50069485 87.56690392 44.49586602 88.57042283 44.49089086 89.6043514 C44.47970432 92.93523735 44.49687513 96.26534107 44.51416016 99.59619141 C44.51201222 101.99697578 44.50813145 104.39775912 44.50265503 106.79853821 C44.49399144 112.62283351 44.50379409 118.4468801 44.52235563 124.27114774 C44.54321507 131.06272231 44.54298085 137.85424859 44.54201047 144.64584915 C44.54101119 156.76752819 44.55928003 168.88910135 44.58837891 181.01074219 C44.61656223 192.75718107 44.63071973 204.50352684 44.62939453 216.25 C44.62931462 216.97383533 44.62923471 217.69767066 44.62915237 218.44344039 C44.62907166 219.16605927 44.62899095 219.88867815 44.6289078 220.63319457 C44.62752613 234.03158336 44.63931789 247.42993281 44.65721423 260.82830883 C44.66323173 265.55608926 44.66537153 270.28386243 44.66627884 275.01164627 C44.66829088 281.37944216 44.68052649 287.74714068 44.70061111 294.1149044 C44.70644213 296.44933539 44.7089157 298.78377758 44.70775604 301.11821556 C44.70677093 304.30910726 44.71812211 307.49972838 44.73257446 310.69058228 C44.72947726 311.61014572 44.72638005 312.52970916 44.723189 313.47713816 C44.81771533 326.14976631 48.17656383 335.6410675 56.8671875 344.95703125 C65.46507381 353.19273554 75.85968889 355.46532493 87.47436523 355.38095093 C88.48040771 355.3856309 89.48645018 355.39031087 90.52297878 355.39513266 C93.86832094 355.40702553 97.21324911 355.39764766 100.55859375 355.38818359 C102.96746051 355.39225182 105.3763254 355.39759511 107.78518677 355.40411377 C113.63329962 355.41634776 119.48128261 355.41459236 125.32939935 355.40587585 C130.08499615 355.39908297 134.84056062 355.39818949 139.59616089 355.4014473 C140.61390599 355.40213684 140.61390599 355.40213684 141.65221161 355.40284032 C143.03084096 355.40379956 144.40947031 355.4047722 145.78809965 355.4057581 C158.69605774 355.4142996 171.60395177 355.40449738 184.51189935 355.388357 C195.57209257 355.37495493 206.6321913 355.37728338 217.69238281 355.39111328 C230.55617482 355.40719106 243.41991078 355.41347574 256.28371143 355.40427649 C257.65708732 355.40332091 259.03046321 355.40237779 260.40383911 355.4014473 C261.4172603 355.40075306 261.4172603 355.40075306 262.45115465 355.40004479 C267.19750187 355.39746149 271.94381335 355.40181162 276.69015503 355.40888596 C283.0858697 355.41756807 289.4814064 355.41151069 295.8771019 355.39420319 C298.2207904 355.39024504 300.56449395 355.39136084 302.90817642 355.39799118 C306.11419636 355.40622313 309.31965059 355.39586473 312.52563477 355.38095093 C313.44685843 355.38764309 314.3680821 355.39433526 315.31722164 355.40123022 C323.85052673 355.32455482 331.6566429 353.55868942 338.625 348.4375 C339.88183594 347.53837891 339.88183594 347.53837891 341.1640625 346.62109375 C341.76992188 346.08613281 342.37578125 345.55117188 343 345 C343 344.34 343 343.68 343 343 C343.99 342.67 344.98 342.34 346 342 C347.58355809 339.9245286 347.58355809 339.9245286 349 337.375 C349.7425 336.11816406 349.7425 336.11816406 350.5 334.8359375 C354.2688441 327.71046662 355.43902342 322.81772661 355.38768005 314.77923584 C355.39306559 313.76421155 355.39845113 312.74918726 355.40399987 311.70340466 C355.41828223 308.30963264 355.41117479 304.91625051 355.40405273 301.52246094 C355.40975623 299.08610216 355.41672041 296.64974605 355.42485046 294.21339417 C355.44093767 288.28634101 355.4428813 282.35938578 355.43763756 276.43232241 C355.43359084 271.61182514 355.43504538 266.79135913 355.44038582 261.97086334 C355.44113424 261.28392277 355.44188266 260.59698221 355.44265376 259.88922526 C355.4441853 258.49352603 355.44572365 257.09782682 355.44726873 255.70212761 C355.46098922 242.62009097 355.45555993 229.53811418 355.44408352 216.45607892 C355.43415807 204.50405486 355.44708064 192.55218576 355.47101771 180.6001856 C355.49543908 168.31326994 355.50500873 156.02642636 355.49836498 143.73948693 C355.49487866 136.84723166 355.49706552 129.95509544 355.51461601 123.06285858 C355.5309235 116.57852662 355.52610901 110.09441705 355.50731087 103.61009026 C355.50362968 101.23457075 355.50671964 98.8590293 355.51719666 96.48353004 C355.53044037 93.23158181 355.51882806 89.98060591 355.50120544 86.72869873 C355.51081045 85.7966687 355.52041546 84.86463867 355.53031152 83.9043653 C355.40507914 72.61221739 351.21918019 63.30698038 343.33984375 55.31640625 C334.46784443 47.21237042 324.63654404 44.69155154 312.88639832 44.73930359 C311.88291912 44.73547804 310.87943992 44.73165249 309.84555227 44.72771102 C306.49097533 44.71741174 303.13657055 44.72136739 299.78198242 44.7253418 C297.37355898 44.7209936 294.96513692 44.71581009 292.55671692 44.70985413 C286.69819676 44.69785399 280.83971914 44.69531148 274.98119136 44.69765439 C270.216946 44.69943973 265.45271454 44.69768328 260.68847084 44.69342995 C259.67011603 44.69253716 259.67011603 44.69253716 258.6311884 44.69162634 C257.25183445 44.69041455 255.8724805 44.68920041 254.49312655 44.68798397 C241.56516885 44.67711432 228.63723725 44.67926802 215.70927808 44.68536881 C203.89563546 44.69053582 192.08207534 44.67928723 180.26844903 44.66027059 C168.12505807 44.6408737 155.98170612 44.63263954 143.83829957 44.63639385 C137.02601901 44.63830329 130.21380864 44.63584351 123.40154076 44.62167931 C116.99357912 44.60849015 110.58574111 44.6110507 104.17777824 44.62409019 C101.82925104 44.62645436 99.4807122 44.62372707 97.13219833 44.61546707 C93.91945928 44.60498451 90.70727216 44.61311288 87.49455261 44.6257782 C86.57128258 44.61840391 85.64801256 44.61102963 84.69676465 44.60343188 C71.29618221 44.71411485 60.71695521 50.01221891 52.0625 60.3125 Z " fill="#F5F5F5" transform="translate(0,0)"/>
<path d="M0 0 C11.48302977 7.98964808 17.33255151 18.53504657 20.5765686 31.96740723 C21.97854271 40.93460703 21.54707028 50.08841807 21.48046875 59.140625 C21.47486477 61.38791621 21.47059846 63.63521112 21.46760559 65.88250732 C21.45622003 71.76135602 21.42680759 77.63997792 21.39349365 83.51873779 C21.36265645 89.53199192 21.34907122 95.54528313 21.33398438 101.55859375 C21.30193132 113.3308442 21.24921539 125.10286765 21.1875 136.875 C7.6575 136.875 -5.8725 136.875 -19.8125 136.875 C-19.83828125 130.63851562 -19.8640625 124.40203125 -19.890625 117.9765625 C-19.91580904 114.01167837 -19.94215397 110.04686934 -19.97265625 106.08203125 C-20.02089816 99.79703545 -20.06497786 93.51221362 -20.08349609 87.22705078 C-20.0987059 82.15640985 -20.13322811 77.08622587 -20.18080902 72.01578903 C-20.1955783 70.08708049 -20.20353844 68.15830669 -20.20438385 66.22954178 C-20.2143641 54.87113525 -20.51743067 45.93118533 -26.5625 36 C-31.99784253 30.86662094 -36.75388676 29.58290088 -44.25 29.3125 C-52.90066287 29.57047205 -58.28784498 31.92898519 -64.1875 38.1875 C-70.3413858 46.0460633 -70.94063903 55.31913181 -71.01782227 65.01342773 C-71.02772186 65.79473557 -71.03762146 66.5760434 -71.04782104 67.38102722 C-71.07917943 69.9401862 -71.10409095 72.49936369 -71.12890625 75.05859375 C-71.14949799 76.84221352 -71.17049502 78.62582865 -71.19187927 80.40943909 C-71.24687074 85.08645861 -71.29638039 89.76352049 -71.34472656 94.44061279 C-71.40398005 100.06168971 -71.47008095 105.68268983 -71.53502655 111.30370331 C-71.63274731 119.82742166 -71.72180065 128.35119102 -71.8125 136.875 C-85.3425 136.875 -98.8725 136.875 -112.8125 136.875 C-112.8125 90.675 -112.8125 44.475 -112.8125 -3.125 C-99.9425 -3.125 -87.0725 -3.125 -73.8125 -3.125 C-72.82387789 0.82948845 -72.48315744 4.58105624 -72.25 8.625 C-72.20681641 9.32238281 -72.16363281 10.01976562 -72.11914062 10.73828125 C-72.01360404 12.45031922 -71.9126009 14.16263561 -71.8125 15.875 C-71.50699219 15.3903125 -71.20148438 14.905625 -70.88671875 14.40625 C-56.0233474 -7.36544888 -22.40523222 -13.19215176 0 0 Z " fill="#FDFDFE" transform="translate(282.8125,170.125)"/>
<path d="M0 0 C14.19 0 28.38 0 43 0 C43 46.53 43 93.06 43 141 C28.81 141 14.62 141 0 141 C0 94.47 0 47.94 0 0 Z " fill="#F8FBFC" transform="translate(99,166)"/>
<path d="M0 0 C7.92 0 15.84 0 24 0 C24.01030746 2.00227158 24.02061493 4.00454315 24.03123474 6.06748962 C24.12859801 24.88916289 24.23142571 43.71080057 24.33933926 62.53241634 C24.39469304 72.20999361 24.44817851 81.88757455 24.49731445 91.56518555 C24.54012996 99.99702647 24.58640119 108.42884001 24.63687855 116.86063868 C24.66350078 121.32805785 24.6883543 125.79547152 24.70907402 130.26292229 C24.72860756 134.46286822 24.75274128 138.66276192 24.78049088 142.86266136 C24.78987877 144.40867416 24.79754775 145.95469845 24.80341911 147.50072861 C24.81165092 149.60238586 24.82591896 151.70391534 24.84178162 153.80552673 C24.84823417 154.98449996 24.85468672 156.16347319 24.8613348 157.37817287 C24.70303146 159.92595616 24.70303146 159.92595616 26 161 C26.29801528 162.34844538 26.56320705 163.70420288 26.8125 165.0625 C28.40176725 172.29995446 30.92251268 177.02002555 36.25 182.1875 C39.95131431 186.09444288 40.52324485 188.70456275 40.5 194.0625 C40.335 196.021875 40.17 197.98125 40 200 C33.4 200 26.8 200 20 200 C20 193.4 20 186.8 20 180 C13.4 180 6.8 180 0 180 C0 173.4 0 166.8 0 160 C6.6 160 13.2 160 20 160 C20 153.4 20 146.8 20 140 C13.4 140 6.8 140 0 140 C0 133.4 0 126.8 0 120 C6.6 120 13.2 120 20 120 C20 113.4 20 106.8 20 100 C13.4 100 6.8 100 0 100 C0 93.4 0 86.8 0 80 C6.6 80 13.2 80 20 80 C20 73.4 20 66.8 20 60 C13.4 60 6.8 60 0 60 C0 53.4 0 46.8 0 40 C6.6 40 13.2 40 20 40 C20 33.4 20 26.8 20 20 C13.4 20 6.8 20 0 20 C0 13.4 0 6.8 0 0 Z " fill="#FDFDFD" transform="translate(20,160)"/>
<path d="M0 0 C6.06275532 4.47128205 10.73490928 10.103906 12.1875 17.61328125 C13.25365693 27.3552902 11.4613222 34.57080306 5.5625 42.36328125 C-0.14150095 48.45038674 -6.54226609 50.90567402 -14.8125 51.23828125 C-23.61872204 50.87494093 -29.77815188 48.15772473 -35.75 41.67578125 C-41.55723251 34.72707797 -42.52682981 28.27087237 -42.21484375 19.53125 C-41.30894761 10.70975654 -36.63377633 5.9469696 -30.19140625 0.2421875 C-21.46865993 -5.73053043 -8.92548987 -5.21142912 0 0 Z " fill="#FBFCFD" transform="translate(135.8125,96.38671875)"/>
<path d="M0 0 C6.6 0 13.2 0 20 0 C20 6.6 20 13.2 20 20 C26.6 20 33.2 20 40 20 C40 13.4 40 6.8 40 0 C46.6 0 53.2 0 60 0 C60 6.6 60 13.2 60 20 C65.94 20 71.88 20 78 20 C78.495 21.485 78.495 21.485 79 23 C109.195 23.495 109.195 23.495 140 24 C140 22.68 140 21.36 140 20 C146.6 20 153.2 20 160 20 C160.33 21.32 160.66 22.64 161 24 C193.67 24 226.34 24 260 24 C260 24.33 260 24.66 260 25 C258.75686098 25.00238835 257.51372196 25.00477671 256.23291206 25.00723743 C226.70200613 25.06463706 197.17117925 25.13739583 167.64036161 25.22898628 C164.00307996 25.24025401 160.36579792 25.25139253 156.72851562 25.26245117 C155.6423712 25.2657567 155.6423712 25.2657567 154.53428446 25.269129 C142.82047205 25.30447042 131.10665972 25.32935234 119.39281382 25.35034702 C107.36713099 25.37213425 95.34151716 25.40521234 83.31589305 25.44870156 C76.56389001 25.4727973 69.81195549 25.4917311 63.05990982 25.49761391 C56.70205994 25.50366546 50.3444052 25.52366847 43.98662758 25.55427551 C41.65585879 25.56305449 39.32506451 25.56677862 36.99427986 25.56500816 C33.80521719 25.56335091 30.61674622 25.58009392 27.42776489 25.60127258 C26.51139287 25.59642501 25.59502085 25.59157743 24.65087998 25.58658296 C15.90107524 25.68208759 8.14091016 27.51422226 1.125 32.9375 C0.24070312 33.60652344 -0.64359375 34.27554688 -1.5546875 34.96484375 C-4.03815504 36.91365577 -4.03815504 36.91365577 -5.9296875 39.26953125 C-8 41 -8 41 -11.015625 41.171875 C-14.01041667 40.78125 -17.00520833 40.390625 -20 40 C-20 33.4 -20 26.8 -20 20 C-13.4 20 -6.8 20 0 20 C0 13.4 0 6.8 0 0 Z M160 0 C166.6 0 173.2 0 180 0 C180 6.6 180 13.2 180 20 C173.4 20 166.8 20 160 20 C160 13.4 160 6.8 160 0 Z " fill="#EFEFF0" transform="translate(60,20)"/>
<path d="M0 0 C3.96 0 7.92 0 12 0 C12 6.6 12 13.2 12 20 C10.68 20 9.36 20 8 20 C8 79.4 8 138.8 8 200 C9.32 200 10.64 200 12 200 C12 206.6 12 213.2 12 220 C18.6 220 25.2 220 32 220 C32 226.6 32 233.2 32 240 C25.4 240 18.8 240 12 240 C12 246.6 12 253.2 12 260 C10.35 260 8.7 260 7 260 C6.99853344 258.75262904 6.99706688 257.50525808 6.99555588 256.22008801 C6.95982266 226.58307022 6.90353648 196.94616875 6.82207905 167.30924467 C6.81206208 163.65823057 6.80221786 160.00721603 6.79248047 156.35620117 C6.78956841 155.26596429 6.78956841 155.26596429 6.78659752 154.15370242 C6.75561064 142.39852655 6.73860613 130.6433702 6.72680578 118.8881612 C6.71437702 106.81839014 6.6868368 94.74872112 6.64538693 82.6790145 C6.62254683 75.90292512 6.60659551 69.1269674 6.60811615 62.3508358 C6.60886247 55.96913442 6.59092201 49.58775482 6.55883217 43.2061367 C6.55033398 40.86772632 6.54858266 38.52927984 6.55419731 36.19086075 C6.56085966 32.98886178 6.54286201 29.78787993 6.51898193 26.58598328 C6.52674235 25.66863315 6.53450277 24.75128302 6.54249835 23.8061344 C6.45197304 16.91171345 4.64035272 11.33033862 2 5 C1.34 3.35 0.68 1.7 0 0 Z " fill="#EFF0F1" transform="translate(348,60)"/>
<path d="M0 0 C0.94875 0.598125 1.8975 1.19625 2.875 1.8125 C10.69125955 6.23712568 18.55859417 7.44564502 27.42776489 7.39872742 C28.9290361 7.40869766 28.9290361 7.40869766 30.46063602 7.41886932 C33.78782791 7.43740439 37.11465717 7.4349004 40.44189453 7.43237305 C42.8374329 7.44139598 45.23296666 7.4517245 47.62849426 7.46325684 C53.44113875 7.48793663 59.25369375 7.49906988 65.06638582 7.50413426 C71.83453412 7.51076923 78.60259293 7.53425336 85.37069641 7.55872939 C97.43884558 7.60192903 109.50698961 7.63193466 121.57519531 7.65356445 C133.2929944 7.67459465 145.01075153 7.70188749 156.72851562 7.73754883 C157.45172832 7.73974765 158.17494101 7.74194648 158.92006923 7.74421193 C162.54849252 7.7552821 166.17691542 7.76647481 169.80533814 7.77772844 C199.87018888 7.87081686 229.93505936 7.9422384 260 8 C260 9.65 260 11.3 260 13 C253.4 13 246.8 13 240 13 C240 19.6 240 26.2 240 33 C233.4 33 226.8 33 220 33 C220 26.4 220 19.8 220 13 C223.30994713 11.34502644 226.99123 11.89915665 230.625 11.9375 C231.42679688 11.94201172 232.22859375 11.94652344 233.0546875 11.95117188 C235.03649006 11.96296832 237.01825433 11.98090395 239 12 C239.33 11.01 239.66 10.02 240 9 C167.4 9 94.8 9 20 9 C20 10.32 20 11.64 20 13 C13.4 13 6.8 13 0 13 C0 8.71 0 4.42 0 0 Z " fill="#EFF0F1" transform="translate(60,347)"/>
<path d="M0 0 C0.33 0 0.66 0 1 0 C1 79.2 1 158.4 1 240 C0.67 240 0.34 240 0 240 C0 187.2 0 134.4 0 80 C-1.98 80.495 -1.98 80.495 -4 81 C-5.58898289 81.0150767 -7.17920851 80.97043028 -8.765625 80.87890625 C-9.56774414 80.83580322 -10.36986328 80.7927002 -11.19628906 80.74829102 C-12.20401367 80.68697998 -13.21173828 80.62566895 -14.25 80.5625 C-17.4675 80.376875 -20.685 80.19125 -24 80 C-24 73.4 -24 66.8 -24 60 C-17.4 60 -10.8 60 -4 60 C-4 53.4 -4 46.8 -4 40 C-2.68 40 -1.36 40 0 40 C0 26.8 0 13.6 0 0 Z " fill="#E1EAEB" transform="translate(44,80)"/>
<path d="M0 0 C6.6 0 13.2 0 20 0 C20 6.6 20 13.2 20 20 C13.4 20 6.8 20 0 20 C0 13.4 0 6.8 0 0 Z M-20 20 C-13.4 20 -6.8 20 0 20 C0.33 21.32 0.66 22.64 1 24 C33.67 24 66.34 24 100 24 C100 24.33 100 24.66 100 25 C20.8 25 -58.4 25 -140 25 C-140 24.67 -140 24.34 -140 24 C-100.4 24 -60.8 24 -20 24 C-20 22.68 -20 21.36 -20 20 Z " fill="#E0E9EC" transform="translate(220,20)"/>
<path d="M0 0 C6.6 0 13.2 0 20 0 C20 7.92 20 15.84 20 24 C6.8 24 -6.4 24 -20 24 C-20 22.68 -20 21.36 -20 20 C-13.73 20 -7.46 20 -1 20 C-0.67 13.4 -0.34 6.8 0 0 Z " fill="#EFEFF0" transform="translate(180,20)"/>
<path d="M0 0 C6.6 0 13.2 0 20 0 C20 6.6 20 13.2 20 20 C26.6 20 33.2 20 40 20 C40 21.32 40 22.64 40 24 C33.07 24 26.14 24 19 24 C18.67 22.68 18.34 21.36 18 20 C12.06 20 6.12 20 0 20 C0 13.4 0 6.8 0 0 Z " fill="#FEFEFE" transform="translate(120,20)"/>
<path d="M0 0 C6.6 0 13.2 0 20 0 C20 6.93 20 13.86 20 21 C13.4 20.67 6.8 20.34 0 20 C0 13.4 0 6.8 0 0 Z " fill="#FEFEFE" transform="translate(160,20)"/>
<path d="M0 0 C6.6 0 13.2 0 20 0 C20 6.6 20 13.2 20 20 C13.4 20 6.8 20 0 20 C0 13.4 0 6.8 0 0 Z " fill="#F0F0F0" transform="translate(380,380)"/>
<path d="M0 0 C6.6 0 13.2 0 20 0 C20 6.6 20 13.2 20 20 C13.4 20 6.8 20 0 20 C0 13.4 0 6.8 0 0 Z " fill="#FFFFFF" transform="translate(360,380)"/>
<path d="M0 0 C6.6 0 13.2 0 20 0 C20 6.6 20 13.2 20 20 C13.4 20 6.8 20 0 20 C0 13.4 0 6.8 0 0 Z " fill="#F0F0F0" transform="translate(340,380)"/>
<path d="M0 0 C6.6 0 13.2 0 20 0 C20 6.6 20 13.2 20 20 C13.4 20 6.8 20 0 20 C0 13.4 0 6.8 0 0 Z " fill="#FFFFFF" transform="translate(320,380)"/>
<path d="M0 0 C6.6 0 13.2 0 20 0 C20 6.6 20 13.2 20 20 C13.4 20 6.8 20 0 20 C0 13.4 0 6.8 0 0 Z " fill="#FFFFFF" transform="translate(280,380)"/>
<path d="M0 0 C6.6 0 13.2 0 20 0 C20 6.6 20 13.2 20 20 C13.4 20 6.8 20 0 20 C0 13.4 0 6.8 0 0 Z " fill="#F0F0F0" transform="translate(260,380)"/>
<path d="M0 0 C6.6 0 13.2 0 20 0 C20 6.6 20 13.2 20 20 C13.4 20 6.8 20 0 20 C0 13.4 0 6.8 0 0 Z " fill="#FFFFFF" transform="translate(240,380)"/>
<path d="M0 0 C6.6 0 13.2 0 20 0 C20 6.6 20 13.2 20 20 C13.4 20 6.8 20 0 20 C0 13.4 0 6.8 0 0 Z " fill="#F0F0F0" transform="translate(220,380)"/>
<path d="M0 0 C6.6 0 13.2 0 20 0 C20 6.6 20 13.2 20 20 C13.4 20 6.8 20 0 20 C0 13.4 0 6.8 0 0 Z " fill="#FFFFFF" transform="translate(200,380)"/>
<path d="M0 0 C6.6 0 13.2 0 20 0 C20 6.6 20 13.2 20 20 C13.4 20 6.8 20 0 20 C0 13.4 0 6.8 0 0 Z " fill="#F0F0F0" transform="translate(180,380)"/>
<path d="M0 0 C6.6 0 13.2 0 20 0 C20 6.6 20 13.2 20 20 C13.4 20 6.8 20 0 20 C0 13.4 0 6.8 0 0 Z " fill="#FFFFFF" transform="translate(160,380)"/>
<path d="M0 0 C6.6 0 13.2 0 20 0 C20 6.6 20 13.2 20 20 C13.4 20 6.8 20 0 20 C0 13.4 0 6.8 0 0 Z " fill="#F0F0F0" transform="translate(140,380)"/>
<path d="M0 0 C6.6 0 13.2 0 20 0 C20 6.6 20 13.2 20 20 C13.4 20 6.8 20 0 20 C0 13.4 0 6.8 0 0 Z " fill="#FFFFFF" transform="translate(120,380)"/>
<path d="M0 0 C6.6 0 13.2 0 20 0 C20 6.6 20 13.2 20 20 C13.4 20 6.8 20 0 20 C0 13.4 0 6.8 0 0 Z " fill="#F0F0F0" transform="translate(100,380)"/>
<path d="M0 0 C6.6 0 13.2 0 20 0 C20 6.6 20 13.2 20 20 C13.4 20 6.8 20 0 20 C0 13.4 0 6.8 0 0 Z " fill="#FFFFFF" transform="translate(80,380)"/>
<path d="M0 0 C6.6 0 13.2 0 20 0 C20 6.6 20 13.2 20 20 C13.4 20 6.8 20 0 20 C0 13.4 0 6.8 0 0 Z " fill="#F0F0F0" transform="translate(60,380)"/>
<path d="M0 0 C6.6 0 13.2 0 20 0 C20 6.6 20 13.2 20 20 C13.4 20 6.8 20 0 20 C0 13.4 0 6.8 0 0 Z " fill="#FFFFFF" transform="translate(40,380)"/>
<path d="M0 0 C6.6 0 13.2 0 20 0 C20 6.6 20 13.2 20 20 C13.4 20 6.8 20 0 20 C0 13.4 0 6.8 0 0 Z " fill="#F0F0F0" transform="translate(20,380)"/>
<path d="M0 0 C6.6 0 13.2 0 20 0 C20 6.6 20 13.2 20 20 C13.4 20 6.8 20 0 20 C0 13.4 0 6.8 0 0 Z " fill="#FFFFFF" transform="translate(0,380)"/>
<path d="M0 0 C6.6 0 13.2 0 20 0 C20 6.6 20 13.2 20 20 C13.4 20 6.8 20 0 20 C0 13.4 0 6.8 0 0 Z " fill="#FFFFFF" transform="translate(380,360)"/>
<path d="M0 0 C6.6 0 13.2 0 20 0 C20 6.6 20 13.2 20 20 C13.4 20 6.8 20 0 20 C0 13.4 0 6.8 0 0 Z " fill="#FFFFFF" transform="translate(340,360)"/>
<path d="M0 0 C6.6 0 13.2 0 20 0 C20 6.6 20 13.2 20 20 C13.4 20 6.8 20 0 20 C0 13.4 0 6.8 0 0 Z " fill="#FEFFFF" transform="translate(300,360)"/>
<path d="M0 0 C6.6 0 13.2 0 20 0 C20 6.6 20 13.2 20 20 C13.4 20 6.8 20 0 20 C0 13.4 0 6.8 0 0 Z " fill="#FEFEFE" transform="translate(260,360)"/>
<path d="M0 0 C6.6 0 13.2 0 20 0 C20 6.6 20 13.2 20 20 C13.4 20 6.8 20 0 20 C0 13.4 0 6.8 0 0 Z " fill="#EFF0F0" transform="translate(240,360)"/>
<path d="M0 0 C6.6 0 13.2 0 20 0 C20 6.6 20 13.2 20 20 C13.4 20 6.8 20 0 20 C0 13.4 0 6.8 0 0 Z " fill="#FEFFFF" transform="translate(220,360)"/>
<path d="M0 0 C6.6 0 13.2 0 20 0 C20 6.6 20 13.2 20 20 C13.4 20 6.8 20 0 20 C0 13.4 0 6.8 0 0 Z " fill="#EFF0F0" transform="translate(200,360)"/>
<path d="M0 0 C6.6 0 13.2 0 20 0 C20 6.6 20 13.2 20 20 C13.4 20 6.8 20 0 20 C0 13.4 0 6.8 0 0 Z " fill="#FEFFFF" transform="translate(140,360)"/>
<path d="M0 0 C6.6 0 13.2 0 20 0 C20 6.6 20 13.2 20 20 C13.4 20 6.8 20 0 20 C0 13.4 0 6.8 0 0 Z " fill="#F0EFF0" transform="translate(120,360)"/>
<path d="M0 0 C6.6 0 13.2 0 20 0 C20 6.6 20 13.2 20 20 C13.4 20 6.8 20 0 20 C0 13.4 0 6.8 0 0 Z " fill="#FFFFFF" transform="translate(60,360)"/>
<path d="M0 0 C6.6 0 13.2 0 20 0 C20 6.6 20 13.2 20 20 C13.4 20 6.8 20 0 20 C0 13.4 0 6.8 0 0 Z " fill="#F0F0F0" transform="translate(40,360)"/>
<path d="M0 0 C6.6 0 13.2 0 20 0 C20 6.6 20 13.2 20 20 C13.4 20 6.8 20 0 20 C0 13.4 0 6.8 0 0 Z " fill="#FFFFFF" transform="translate(20,360)"/>
<path d="M0 0 C6.6 0 13.2 0 20 0 C20 6.6 20 13.2 20 20 C13.4 20 6.8 20 0 20 C0 13.4 0 6.8 0 0 Z " fill="#F0F0F0" transform="translate(0,360)"/>
<path d="M0 0 C6.6 0 13.2 0 20 0 C20 6.6 20 13.2 20 20 C13.4 20 6.8 20 0 20 C0 13.4 0 6.8 0 0 Z " fill="#F0F0F0" transform="translate(380,340)"/>
<path d="M0 0 C6.6 0 13.2 0 20 0 C20 6.6 20 13.2 20 20 C13.4 20 6.8 20 0 20 C0 13.4 0 6.8 0 0 Z " fill="#FFFFFF" transform="translate(360,340)"/>
<path d="M0 0 C6.6 0 13.2 0 20 0 C20 6.6 20 13.2 20 20 C13.4 20 6.8 20 0 20 C0 13.4 0 6.8 0 0 Z " fill="#F0F0F0" transform="translate(20,340)"/>
<path d="M0 0 C6.6 0 13.2 0 20 0 C20 6.6 20 13.2 20 20 C13.4 20 6.8 20 0 20 C0 13.4 0 6.8 0 0 Z " fill="#FFFFFF" transform="translate(0,340)"/>
<path d="M0 0 C6.6 0 13.2 0 20 0 C20 6.6 20 13.2 20 20 C13.4 20 6.8 20 0 20 C0 13.4 0 6.8 0 0 Z " fill="#FFFFFF" transform="translate(380,320)"/>
<path d="M0 0 C6.6 0 13.2 0 20 0 C20 6.6 20 13.2 20 20 C13.4 20 6.8 20 0 20 C0 13.4 0 6.8 0 0 Z " fill="#F0F0F0" transform="translate(0,320)"/>
<path d="M0 0 C6.6 0 13.2 0 20 0 C20 6.6 20 13.2 20 20 C13.4 20 6.8 20 0 20 C0 13.4 0 6.8 0 0 Z " fill="#FEFEFF" transform="translate(360,300)"/>
<path d="M0 0 C6.6 0 13.2 0 20 0 C20 6.6 20 13.2 20 20 C13.4 20 6.8 20 0 20 C0 13.4 0 6.8 0 0 Z " fill="#F0F0F0" transform="translate(20,300)"/>
<path d="M0 0 C6.6 0 13.2 0 20 0 C20 6.6 20 13.2 20 20 C13.4 20 6.8 20 0 20 C0 13.4 0 6.8 0 0 Z " fill="#FFFFFF" transform="translate(0,300)"/>
<path d="M0 0 C6.6 0 13.2 0 20 0 C20 6.6 20 13.2 20 20 C13.4 20 6.8 20 0 20 C0 13.4 0 6.8 0 0 Z " fill="#FFFFFF" transform="translate(380,280)"/>
<path d="M0 0 C6.6 0 13.2 0 20 0 C20 6.6 20 13.2 20 20 C13.4 20 6.8 20 0 20 C0 13.4 0 6.8 0 0 Z " fill="#F0F0F0" transform="translate(0,280)"/>
<path d="M0 0 C6.6 0 13.2 0 20 0 C20 6.6 20 13.2 20 20 C13.4 20 6.8 20 0 20 C0 13.4 0 6.8 0 0 Z " fill="#F0F0F0" transform="translate(380,260)"/>
<path d="M0 0 C6.6 0 13.2 0 20 0 C20 6.6 20 13.2 20 20 C13.4 20 6.8 20 0 20 C0 13.4 0 6.8 0 0 Z " fill="#FEFFFF" transform="translate(360,260)"/>
<path d="M0 0 C6.6 0 13.2 0 20 0 C20 6.6 20 13.2 20 20 C13.4 20 6.8 20 0 20 C0 13.4 0 6.8 0 0 Z " fill="#F0F0F0" transform="translate(20,260)"/>
<path d="M0 0 C6.6 0 13.2 0 20 0 C20 6.6 20 13.2 20 20 C13.4 20 6.8 20 0 20 C0 13.4 0 6.8 0 0 Z " fill="#FFFFFF" transform="translate(0,260)"/>
<path d="M0 0 C6.6 0 13.2 0 20 0 C20 6.6 20 13.2 20 20 C13.4 20 6.8 20 0 20 C0 13.4 0 6.8 0 0 Z " fill="#FFFFFF" transform="translate(380,240)"/>
<path d="M0 0 C6.6 0 13.2 0 20 0 C20 6.6 20 13.2 20 20 C13.4 20 6.8 20 0 20 C0 13.4 0 6.8 0 0 Z " fill="#EFF0EF" transform="translate(360,240)"/>
<path d="M0 0 C6.6 0 13.2 0 20 0 C20 6.6 20 13.2 20 20 C13.4 20 6.8 20 0 20 C0 13.4 0 6.8 0 0 Z " fill="#F0F0F0" transform="translate(0,240)"/>
<path d="M0 0 C6.6 0 13.2 0 20 0 C20 6.6 20 13.2 20 20 C13.4 20 6.8 20 0 20 C0 13.4 0 6.8 0 0 Z " fill="#F0F0F0" transform="translate(380,220)"/>
<path d="M0 0 C6.6 0 13.2 0 20 0 C20 6.6 20 13.2 20 20 C13.4 20 6.8 20 0 20 C0 13.4 0 6.8 0 0 Z " fill="#F0F0EF" transform="translate(20,220)"/>
<path d="M0 0 C6.6 0 13.2 0 20 0 C20 6.6 20 13.2 20 20 C13.4 20 6.8 20 0 20 C0 13.4 0 6.8 0 0 Z " fill="#FFFFFF" transform="translate(0,220)"/>
<path d="M0 0 C6.6 0 13.2 0 20 0 C20 6.6 20 13.2 20 20 C13.4 20 6.8 20 0 20 C0 13.4 0 6.8 0 0 Z " fill="#FFFFFF" transform="translate(380,200)"/>
<path d="M0 0 C6.6 0 13.2 0 20 0 C20 6.6 20 13.2 20 20 C13.4 20 6.8 20 0 20 C0 13.4 0 6.8 0 0 Z " fill="#EFF0EE" transform="translate(360,200)"/>
<path d="M0 0 C6.6 0 13.2 0 20 0 C20 6.6 20 13.2 20 20 C13.4 20 6.8 20 0 20 C0 13.4 0 6.8 0 0 Z " fill="#F0F0F0" transform="translate(0,200)"/>
<path d="M0 0 C6.6 0 13.2 0 20 0 C20 6.6 20 13.2 20 20 C13.4 20 6.8 20 0 20 C0 13.4 0 6.8 0 0 Z " fill="#F0F0F0" transform="translate(380,180)"/>
<path d="M0 0 C6.6 0 13.2 0 20 0 C20 6.6 20 13.2 20 20 C13.4 20 6.8 20 0 20 C0 13.4 0 6.8 0 0 Z " fill="#F0F0EF" transform="translate(20,180)"/>
<path d="M0 0 C6.6 0 13.2 0 20 0 C20 6.6 20 13.2 20 20 C13.4 20 6.8 20 0 20 C0 13.4 0 6.8 0 0 Z " fill="#FFFFFF" transform="translate(0,180)"/>
<path d="M0 0 C6.6 0 13.2 0 20 0 C20 6.6 20 13.2 20 20 C13.4 20 6.8 20 0 20 C0 13.4 0 6.8 0 0 Z " fill="#FFFFFF" transform="translate(380,160)"/>
<path d="M0 0 C6.6 0 13.2 0 20 0 C20 6.6 20 13.2 20 20 C13.4 20 6.8 20 0 20 C0 13.4 0 6.8 0 0 Z " fill="#F0F0F0" transform="translate(0,160)"/>
<path d="M0 0 C6.6 0 13.2 0 20 0 C20 6.6 20 13.2 20 20 C13.4 20 6.8 20 0 20 C0 13.4 0 6.8 0 0 Z " fill="#F0F0F0" transform="translate(380,140)"/>
<path d="M0 0 C6.6 0 13.2 0 20 0 C20 6.6 20 13.2 20 20 C13.4 20 6.8 20 0 20 C0 13.4 0 6.8 0 0 Z " fill="#FFFFFF" transform="translate(0,140)"/>
<path d="M0 0 C6.6 0 13.2 0 20 0 C20 6.6 20 13.2 20 20 C13.4 20 6.8 20 0 20 C0 13.4 0 6.8 0 0 Z " fill="#FFFFFF" transform="translate(380,120)"/>
<path d="M0 0 C6.6 0 13.2 0 20 0 C20 6.6 20 13.2 20 20 C13.4 20 6.8 20 0 20 C0 13.4 0 6.8 0 0 Z " fill="#EFEFEF" transform="translate(360,120)"/>
<path d="M0 0 C6.6 0 13.2 0 20 0 C20 6.6 20 13.2 20 20 C13.4 20 6.8 20 0 20 C0 13.4 0 6.8 0 0 Z " fill="#FEFEFE" transform="translate(20,120)"/>
<path d="M0 0 C6.6 0 13.2 0 20 0 C20 6.6 20 13.2 20 20 C13.4 20 6.8 20 0 20 C0 13.4 0 6.8 0 0 Z " fill="#F0F0F0" transform="translate(0,120)"/>
<path d="M0 0 C6.6 0 13.2 0 20 0 C20 6.6 20 13.2 20 20 C13.4 20 6.8 20 0 20 C0 13.4 0 6.8 0 0 Z " fill="#F0F0F0" transform="translate(380,100)"/>
<path d="M0 0 C6.6 0 13.2 0 20 0 C20 6.6 20 13.2 20 20 C13.4 20 6.8 20 0 20 C0 13.4 0 6.8 0 0 Z " fill="#FFFFFF" transform="translate(0,100)"/>
<path d="M0 0 C6.6 0 13.2 0 20 0 C20 6.6 20 13.2 20 20 C13.4 20 6.8 20 0 20 C0 13.4 0 6.8 0 0 Z " fill="#FFFFFF" transform="translate(380,80)"/>
<path d="M0 0 C6.6 0 13.2 0 20 0 C20 6.6 20 13.2 20 20 C13.4 20 6.8 20 0 20 C0 13.4 0 6.8 0 0 Z " fill="#F0F0F0" transform="translate(0,80)"/>
<path d="M0 0 C6.6 0 13.2 0 20 0 C20 6.6 20 13.2 20 20 C13.4 20 6.8 20 0 20 C0 13.4 0 6.8 0 0 Z " fill="#F0F0F0" transform="translate(380,60)"/>
<path d="M0 0 C6.6 0 13.2 0 20 0 C20 6.6 20 13.2 20 20 C13.4 20 6.8 20 0 20 C0 13.4 0 6.8 0 0 Z " fill="#FFFFFF" transform="translate(360,60)"/>
<path d="M0 0 C6.6 0 13.2 0 20 0 C20 6.6 20 13.2 20 20 C13.4 20 6.8 20 0 20 C0 13.4 0 6.8 0 0 Z " fill="#F0F0F0" transform="translate(20,60)"/>
<path d="M0 0 C6.6 0 13.2 0 20 0 C20 6.6 20 13.2 20 20 C13.4 20 6.8 20 0 20 C0 13.4 0 6.8 0 0 Z " fill="#FFFFFF" transform="translate(0,60)"/>
<path d="M0 0 C6.6 0 13.2 0 20 0 C20 6.6 20 13.2 20 20 C13.4 20 6.8 20 0 20 C0 13.4 0 6.8 0 0 Z " fill="#FFFFFF" transform="translate(380,40)"/>
<path d="M0 0 C6.6 0 13.2 0 20 0 C20 6.6 20 13.2 20 20 C13.4 20 6.8 20 0 20 C0 13.4 0 6.8 0 0 Z " fill="#F0F0F0" transform="translate(360,40)"/>
<path d="M0 0 C6.6 0 13.2 0 20 0 C20 6.6 20 13.2 20 20 C13.4 20 6.8 20 0 20 C0 13.4 0 6.8 0 0 Z " fill="#FFFFFF" transform="translate(20,40)"/>
<path d="M0 0 C6.6 0 13.2 0 20 0 C20 6.6 20 13.2 20 20 C13.4 20 6.8 20 0 20 C0 13.4 0 6.8 0 0 Z " fill="#F0F0F0" transform="translate(0,40)"/>
<path d="M0 0 C6.6 0 13.2 0 20 0 C20 6.6 20 13.2 20 20 C13.4 20 6.8 20 0 20 C0 13.4 0 6.8 0 0 Z " fill="#F0F0F0" transform="translate(380,20)"/>
<path d="M0 0 C6.6 0 13.2 0 20 0 C20 6.6 20 13.2 20 20 C13.4 20 6.8 20 0 20 C0 13.4 0 6.8 0 0 Z " fill="#FFFFFF" transform="translate(360,20)"/>
<path d="M0 0 C6.6 0 13.2 0 20 0 C20 6.6 20 13.2 20 20 C13.4 20 6.8 20 0 20 C0 13.4 0 6.8 0 0 Z " fill="#F0F0F0" transform="translate(340,20)"/>
<path d="M0 0 C6.6 0 13.2 0 20 0 C20 6.6 20 13.2 20 20 C13.4 20 6.8 20 0 20 C0 13.4 0 6.8 0 0 Z " fill="#FFFFFF" transform="translate(320,20)"/>
<path d="M0 0 C6.6 0 13.2 0 20 0 C20 6.6 20 13.2 20 20 C13.4 20 6.8 20 0 20 C0 13.4 0 6.8 0 0 Z " fill="#F0F0F0" transform="translate(260,20)"/>
<path d="M0 0 C6.6 0 13.2 0 20 0 C20 6.6 20 13.2 20 20 C13.4 20 6.8 20 0 20 C0 13.4 0 6.8 0 0 Z " fill="#FFFFFF" transform="translate(240,20)"/>
<path d="M0 0 C6.6 0 13.2 0 20 0 C20 6.6 20 13.2 20 20 C13.4 20 6.8 20 0 20 C0 13.4 0 6.8 0 0 Z " fill="#FEFEFE" transform="translate(200,20)"/>
<path d="M0 0 C6.6 0 13.2 0 20 0 C20 6.6 20 13.2 20 20 C13.4 20 6.8 20 0 20 C0 13.4 0 6.8 0 0 Z " fill="#F0F0EF" transform="translate(140,20)"/>
<path d="M0 0 C6.6 0 13.2 0 20 0 C20 6.6 20 13.2 20 20 C13.4 20 6.8 20 0 20 C0 13.4 0 6.8 0 0 Z " fill="#FEFEFE" transform="translate(80,20)"/>
<path d="M0 0 C6.6 0 13.2 0 20 0 C20 6.6 20 13.2 20 20 C13.4 20 6.8 20 0 20 C0 13.4 0 6.8 0 0 Z " fill="#FFFFFF" transform="translate(40,20)"/>
<path d="M0 0 C6.6 0 13.2 0 20 0 C20 6.6 20 13.2 20 20 C13.4 20 6.8 20 0 20 C0 13.4 0 6.8 0 0 Z " fill="#F0F0F0" transform="translate(20,20)"/>
<path d="M0 0 C6.6 0 13.2 0 20 0 C20 6.6 20 13.2 20 20 C13.4 20 6.8 20 0 20 C0 13.4 0 6.8 0 0 Z " fill="#FFFFFF" transform="translate(0,20)"/>
<path d="M0 0 C6.6 0 13.2 0 20 0 C20 6.6 20 13.2 20 20 C13.4 20 6.8 20 0 20 C0 13.4 0 6.8 0 0 Z " fill="#FFFFFF" transform="translate(380,0)"/>
<path d="M0 0 C6.6 0 13.2 0 20 0 C20 6.6 20 13.2 20 20 C13.4 20 6.8 20 0 20 C0 13.4 0 6.8 0 0 Z " fill="#F0F0F0" transform="translate(360,0)"/>
<path d="M0 0 C6.6 0 13.2 0 20 0 C20 6.6 20 13.2 20 20 C13.4 20 6.8 20 0 20 C0 13.4 0 6.8 0 0 Z " fill="#FFFFFF" transform="translate(340,0)"/>
<path d="M0 0 C6.6 0 13.2 0 20 0 C20 6.6 20 13.2 20 20 C13.4 20 6.8 20 0 20 C0 13.4 0 6.8 0 0 Z " fill="#F0F0F0" transform="translate(320,0)"/>
<path d="M0 0 C6.6 0 13.2 0 20 0 C20 6.6 20 13.2 20 20 C13.4 20 6.8 20 0 20 C0 13.4 0 6.8 0 0 Z " fill="#FFFFFF" transform="translate(300,0)"/>
<path d="M0 0 C6.6 0 13.2 0 20 0 C20 6.6 20 13.2 20 20 C13.4 20 6.8 20 0 20 C0 13.4 0 6.8 0 0 Z " fill="#F0F0F0" transform="translate(280,0)"/>
<path d="M0 0 C6.6 0 13.2 0 20 0 C20 6.6 20 13.2 20 20 C13.4 20 6.8 20 0 20 C0 13.4 0 6.8 0 0 Z " fill="#FFFFFF" transform="translate(260,0)"/>
<path d="M0 0 C6.6 0 13.2 0 20 0 C20 6.6 20 13.2 20 20 C13.4 20 6.8 20 0 20 C0 13.4 0 6.8 0 0 Z " fill="#F0F0F0" transform="translate(240,0)"/>
<path d="M0 0 C6.6 0 13.2 0 20 0 C20 6.6 20 13.2 20 20 C13.4 20 6.8 20 0 20 C0 13.4 0 6.8 0 0 Z " fill="#FFFFFF" transform="translate(220,0)"/>
<path d="M0 0 C6.6 0 13.2 0 20 0 C20 6.6 20 13.2 20 20 C13.4 20 6.8 20 0 20 C0 13.4 0 6.8 0 0 Z " fill="#F0F0F0" transform="translate(200,0)"/>
<path d="M0 0 C6.6 0 13.2 0 20 0 C20 6.6 20 13.2 20 20 C13.4 20 6.8 20 0 20 C0 13.4 0 6.8 0 0 Z " fill="#FFFFFF" transform="translate(180,0)"/>
<path d="M0 0 C6.6 0 13.2 0 20 0 C20 6.6 20 13.2 20 20 C13.4 20 6.8 20 0 20 C0 13.4 0 6.8 0 0 Z " fill="#F0F0F0" transform="translate(160,0)"/>
<path d="M0 0 C6.6 0 13.2 0 20 0 C20 6.6 20 13.2 20 20 C13.4 20 6.8 20 0 20 C0 13.4 0 6.8 0 0 Z " fill="#FFFFFF" transform="translate(140,0)"/>
<path d="M0 0 C6.6 0 13.2 0 20 0 C20 6.6 20 13.2 20 20 C13.4 20 6.8 20 0 20 C0 13.4 0 6.8 0 0 Z " fill="#F0F0F0" transform="translate(120,0)"/>
<path d="M0 0 C6.6 0 13.2 0 20 0 C20 6.6 20 13.2 20 20 C13.4 20 6.8 20 0 20 C0 13.4 0 6.8 0 0 Z " fill="#FFFFFF" transform="translate(100,0)"/>
<path d="M0 0 C6.6 0 13.2 0 20 0 C20 6.6 20 13.2 20 20 C13.4 20 6.8 20 0 20 C0 13.4 0 6.8 0 0 Z " fill="#F0F0F0" transform="translate(80,0)"/>
<path d="M0 0 C6.6 0 13.2 0 20 0 C20 6.6 20 13.2 20 20 C13.4 20 6.8 20 0 20 C0 13.4 0 6.8 0 0 Z " fill="#FFFFFF" transform="translate(60,0)"/>
<path d="M0 0 C6.6 0 13.2 0 20 0 C20 6.6 20 13.2 20 20 C13.4 20 6.8 20 0 20 C0 13.4 0 6.8 0 0 Z " fill="#F0F0F0" transform="translate(40,0)"/>
<path d="M0 0 C6.6 0 13.2 0 20 0 C20 6.6 20 13.2 20 20 C13.4 20 6.8 20 0 20 C0 13.4 0 6.8 0 0 Z " fill="#F0F0F0" transform="translate(0,0)"/>
<path d="M0 0 C1.18613892 0.00785522 1.18613892 0.00785522 2.39624023 0.01586914 C3.16524658 0.0183667 3.93425293 0.02086426 4.7265625 0.0234375 C5.70939209 0.0325415 6.69222168 0.04164551 7.70483398 0.05102539 C12.37639648 0.08196289 12.37639648 0.08196289 17.14233398 0.11352539 C17.14233398 6.71352539 17.14233398 13.31352539 17.14233398 20.11352539 C10.54233398 20.11352539 3.94233398 20.11352539 -2.85766602 20.11352539 C-2.88860352 15.44196289 -2.88860352 15.44196289 -2.92016602 10.67602539 C-2.92927002 9.6931958 -2.93837402 8.71036621 -2.94775391 7.69775391 C-2.95025146 6.92874756 -2.95274902 6.15974121 -2.95532227 5.36743164 C-2.96317749 4.18129272 -2.96317749 4.18129272 -2.97119141 2.97119141 C-2.81664371 0.44225938 -2.52893203 0.15454769 0 0 Z " fill="#FEFEFE" transform="translate(182.857666015625,359.886474609375)"/>
<path d="M0 0 C0.94875 0.598125 1.8975 1.19625 2.875 1.8125 C10.69125955 6.23712568 18.55859417 7.44564502 27.42776489 7.39872742 C28.9290361 7.40869766 28.9290361 7.40869766 30.46063602 7.41886932 C33.78782791 7.43740439 37.11465717 7.4349004 40.44189453 7.43237305 C42.8374329 7.44139598 45.23296666 7.4517245 47.62849426 7.46325684 C53.44113875 7.48793663 59.25369375 7.49906988 65.06638582 7.50413426 C71.83453412 7.51076923 78.60259293 7.53425336 85.37069641 7.55872939 C97.43884558 7.60192903 109.50698961 7.63193466 121.57519531 7.65356445 C133.2929944 7.67459465 145.01075153 7.70188749 156.72851562 7.73754883 C157.45172832 7.73974765 158.17494101 7.74194648 158.92006923 7.74421193 C162.54849252 7.7552821 166.17691542 7.76647481 169.80533814 7.77772844 C199.87018888 7.87081686 229.93505936 7.9422384 260 8 C260 8.33 260 8.66 260 9 C180.8 9 101.6 9 20 9 C20 10.32 20 11.64 20 13 C13.4 13 6.8 13 0 13 C0 8.71 0 4.42 0 0 Z " fill="#DCE5EA" transform="translate(60,347)"/>
<path d="M0 0 C1.18613892 0.00785522 1.18613892 0.00785522 2.39624023 0.01586914 C3.16524658 0.0183667 3.93425293 0.02086426 4.7265625 0.0234375 C5.70939209 0.0325415 6.69222168 0.04164551 7.70483398 0.05102539 C12.37639648 0.08196289 12.37639648 0.08196289 17.14233398 0.11352539 C17.14233398 6.71352539 17.14233398 13.31352539 17.14233398 20.11352539 C10.54233398 20.11352539 3.94233398 20.11352539 -2.85766602 20.11352539 C-2.88860352 15.44196289 -2.88860352 15.44196289 -2.92016602 10.67602539 C-2.92927002 9.6931958 -2.93837402 8.71036621 -2.94775391 7.69775391 C-2.95025146 6.92874756 -2.95274902 6.15974121 -2.95532227 5.36743164 C-2.96317749 4.18129272 -2.96317749 4.18129272 -2.97119141 2.97119141 C-2.81664371 0.44225938 -2.52893203 0.15454769 0 0 Z " fill="#FEFEFD" transform="translate(362.857666015625,179.886474609375)"/>
<path d="M0 0 C1.18613892 0.00785522 1.18613892 0.00785522 2.39624023 0.01586914 C3.16524658 0.0183667 3.93425293 0.02086426 4.7265625 0.0234375 C5.70939209 0.0325415 6.69222168 0.04164551 7.70483398 0.05102539 C12.37639648 0.08196289 12.37639648 0.08196289 17.14233398 0.11352539 C17.14233398 6.71352539 17.14233398 13.31352539 17.14233398 20.11352539 C10.54233398 20.11352539 3.94233398 20.11352539 -2.85766602 20.11352539 C-2.88860352 15.44196289 -2.88860352 15.44196289 -2.92016602 10.67602539 C-2.92927002 9.6931958 -2.93837402 8.71036621 -2.94775391 7.69775391 C-2.95025146 6.92874756 -2.95274902 6.15974121 -2.95532227 5.36743164 C-2.96317749 4.18129272 -2.96317749 4.18129272 -2.97119141 2.97119141 C-2.81664371 0.44225938 -2.52893203 0.15454769 0 0 Z " fill="#FEFEFE" transform="translate(362.857666015625,139.886474609375)"/>
<path d="M0 0 C6.27 0 12.54 0 19 0 C20.13926935 6.83561613 20.06532766 13.07526764 20 20 C13.4 20 6.8 20 0 20 C0 13.4 0 6.8 0 0 Z " fill="#EFF0F1" transform="translate(160,360)"/>
<path d="M0 0 C6.6 0 13.2 0 20 0 C20 6.6 20 13.2 20 20 C17.81375 20.020625 15.6275 20.04125 13.375 20.0625 C12.14523437 20.07410156 10.91546875 20.08570312 9.6484375 20.09765625 C6 20 6 20 0 19 C0 12.73 0 6.46 0 0 Z " fill="#EFF0EF" transform="translate(360,80)"/>
<path d="M0 0 C6.6 0 13.2 0 20 0 C20 6.6 20 13.2 20 20 C7.00892857 20.9375 7.00892857 20.9375 2.6875 17.3125 C-1.57411969 12.2321455 -0.45179758 6.26062363 0 0 Z " fill="#FEFEFE" transform="translate(340,40)"/>
<path d="M0 0 C3.96 0 7.92 0 12 0 C12 6.6 12 13.2 12 20 C10.68 20 9.36 20 8 20 C8 86 8 152 8 220 C7.67 220 7.34 220 7 220 C6.99780016 218.4381675 6.99780016 218.4381675 6.99555588 216.84478283 C6.9589311 191.48812235 6.89944235 166.13159365 6.81609726 140.77504253 C6.77631902 128.51270521 6.7439203 116.25043196 6.72900391 103.98803711 C6.71598116 93.29785002 6.68900037 82.60780396 6.64538693 71.9176963 C6.62278637 66.25942225 6.60708849 60.60132207 6.60811615 54.94299889 C6.60886358 49.61186439 6.59087919 44.28111404 6.55883217 38.95007896 C6.55034779 36.99868523 6.54857326 35.04724834 6.55419731 33.09584427 C6.57946604 22.97651484 6.46350647 14.30932557 2 5 C1.34 3.35 0.68 1.7 0 0 Z " fill="#D9E6E9" transform="translate(348,60)"/>
<path d="M0 0 C1.32 0.33 2.64 0.66 4 1 C4.91401476 27.05252947 4.9829287 52.9490462 4 79 C2.02 79.495 2.02 79.495 0 80 C0 53.6 0 27.2 0 0 Z " fill="#FCFDFD" transform="translate(356,100)"/>
<path d="M0 0 C0.94875 0.598125 1.8975 1.19625 2.875 1.8125 C11.21206224 6.52078117 19.68838149 7.47739717 29.125 7.6875 C30.7028125 7.73874023 30.7028125 7.73874023 32.3125 7.79101562 C34.87489313 7.87254632 37.43698497 7.94199728 40 8 C40 8.33 40 8.66 40 9 C33.4 9 26.8 9 20 9 C20 10.32 20 11.64 20 13 C13.4 13 6.8 13 0 13 C0 8.71 0 4.42 0 0 Z " fill="#E8EDED" transform="translate(60,347)"/>
<path d="M0 0 C6.6 0 13.2 0 20 0 C20.9765625 8.3984375 20.9765625 8.3984375 21 11 C20.34 11.66 19.68 12.32 19 13 C18.0925 12.4225 17.185 11.845 16.25 11.25 C11.16299176 8.3131705 5.58668394 6.72462493 0 5 C0 3.35 0 1.7 0 0 Z " fill="#E8EEEF" transform="translate(320,40)"/>
<path d="M0 0 C0 3.96 0 7.92 0 12 C-6.6 12 -13.2 12 -20 12 C-20 10.35 -20 8.7 -20 7 C-19.11957031 6.74605469 -18.23914063 6.49210937 -17.33203125 6.23046875 C-16.17058594 5.88628906 -15.00914062 5.54210937 -13.8125 5.1875 C-12.66394531 4.85105469 -11.51539063 4.51460938 -10.33203125 4.16796875 C-6.88108787 2.95831802 -3.59767887 0 0 0 Z " fill="#FCFDFD" transform="translate(340,348)"/>
<path d="M0 0 C2.125 0.375 2.125 0.375 4 1 C4.09796875 1.556875 4.1959375 2.11375 4.296875 2.6875 C5.40409487 8.33813935 7.21705194 12.97623661 10 18 C10.33 18.66 10.66 19.32 11 20 C6.71 20 2.42 20 -2 20 C-2.05379226 17.04142591 -2.09357093 14.08382279 -2.125 11.125 C-2.14175781 10.28324219 -2.15851562 9.44148438 -2.17578125 8.57421875 C-2.18222656 7.76855469 -2.18867187 6.96289062 -2.1953125 6.1328125 C-2.21102295 5.01737061 -2.21102295 5.01737061 -2.22705078 3.87939453 C-2 2 -2 2 0 0 Z " fill="#E9EEED" transform="translate(42,320)"/>
<path d="M0 0 C6.6 0 13.2 0 20 0 C20 1.65 20 3.3 20 5 C18.67935547 5.38091797 18.67935547 5.38091797 17.33203125 5.76953125 C16.17058594 6.11371094 15.00914063 6.45789062 13.8125 6.8125 C12.08966797 7.31716797 12.08966797 7.31716797 10.33203125 7.83203125 C7.22793093 8.92010393 4.78033097 10.2764911 2 12 C1.34 12 0.68 12 0 12 C0 8.04 0 4.08 0 0 Z " fill="#FBFCFD" transform="translate(60,40)"/>
<path d="M0 0 C3.96 0 7.92 0 12 0 C12 6.6 12 13.2 12 20 C10.35 19.67 8.7 19.34 7 19 C6.74605469 18.19175781 6.49210937 17.38351563 6.23046875 16.55078125 C5.88628906 15.48214844 5.54210937 14.41351563 5.1875 13.3125 C4.85105469 12.25675781 4.51460938 11.20101562 4.16796875 10.11328125 C3.05319312 7.14178902 1.64869882 4.69744134 0 2 C0 1.34 0 0.68 0 0 Z " fill="#ECEEEE" transform="translate(348,60)"/>
<path d="M0 0 C3.96 0 7.92 0 12 0 C11.34 1.65 10.68 3.3 10 5 C9.30420744 6.85107077 8.61682865 8.70532395 7.9375 10.5625 C7.59589844 11.49191406 7.25429688 12.42132813 6.90234375 13.37890625 C6.14528552 15.57798017 5.51698691 17.73485115 5 20 C3.35 20 1.7 20 0 20 C0 13.4 0 6.8 0 0 Z " fill="#FCFDFE" transform="translate(40,60)"/>
<path d="M0 0 C12.21 0 24.42 0 37 0 C37.495 1.98 37.495 1.98 38 4 C25.46 4 12.92 4 0 4 C0 2.68 0 1.36 0 0 Z " fill="#FDFEFC" transform="translate(101,40)"/>
<path d="M0 0 C6.6 0 13.2 0 20 0 C20 1.32 20 2.64 20 4 C13.4 4 6.8 4 0 4 C0 2.68 0 1.36 0 0 Z " fill="#FEFEFE" transform="translate(120,356)"/>
<path d="M0 0 C1.32 0 2.64 0 4 0 C4 6.6 4 13.2 4 20 C2.68 20 1.36 20 0 20 C0 13.4 0 6.8 0 0 Z " fill="#FDFDFD" transform="translate(356,240)"/>
<path d="M0 0 C1.32 0 2.64 0 4 0 C4 6.6 4 13.2 4 20 C2.68 20 1.36 20 0 20 C0 13.4 0 6.8 0 0 Z " fill="#F0EFF2" transform="translate(40,240)"/>
<path d="M0 0 C6.6 0 13.2 0 20 0 C20 1.32 20 2.64 20 4 C13.4 4 6.8 4 0 4 C0 2.68 0 1.36 0 0 Z " fill="#FFFFFF" transform="translate(260,40)"/>
<path d="M0 0 C1.32 0 2.64 0 4 0 C4 6.27 4 12.54 4 19 C2.68 19.33 1.36 19.66 0 20 C0 13.4 0 6.8 0 0 Z " fill="#FDFDFD" transform="translate(356,200)"/>
<path d="M0 0 C1.32 0 2.64 0 4 0 C4 6.27 4 12.54 4 19 C2.68 19.33 1.36 19.66 0 20 C0 13.4 0 6.8 0 0 Z " fill="#FCFDFC" transform="translate(356,160)"/>
<path d="M0 0 C6.6 0 13.2 0 20 0 C20 1.32 20 2.64 20 4 C13.73 4 7.46 4 1 4 C0.67 2.68 0.34 1.36 0 0 Z " fill="#FDFEFD" transform="translate(220,40)"/>
<path d="M0 0 C6.6 0 13.2 0 20 0 C19.67 1.32 19.34 2.64 19 4 C16.20826945 4.02690104 13.41679652 4.04679053 10.625 4.0625 C9.43390625 4.07506836 9.43390625 4.07506836 8.21875 4.08789062 C2.2265625 4.11328125 2.2265625 4.11328125 0 3 C0 2.01 0 1.02 0 0 Z " fill="#FCFDFE" transform="translate(280,356)"/>
<path d="M0 0 C6.27 0 12.54 0 19 0 C19 1.32 19 2.64 19 4 C12.73 4 6.46 4 0 4 C0 2.68 0 1.36 0 0 Z " fill="#FBFCFF" transform="translate(200,356)"/>
<path d="M0 0 C1.32 0 2.64 0 4 0 C4 6.27 4 12.54 4 19 C2.68 19 1.36 19 0 19 C0 12.73 0 6.46 0 0 Z " fill="#EFEFEF" transform="translate(356,141)"/>
<path d="M0 0 C1.32 0.33 2.64 0.66 4 1 C4 7.27 4 13.54 4 20 C2.68 20 1.36 20 0 20 C0 13.4 0 6.8 0 0 Z " fill="#F0F1F1" transform="translate(356,100)"/>
<path d="M0 0 C6.27 0 12.54 0 19 0 C19 1.32 19 2.64 19 4 C12.73 4 6.46 4 0 4 C0 2.68 0 1.36 0 0 Z " fill="#FDFEFD" transform="translate(181,40)"/>
<path d="M0 0 C5.94 0 11.88 0 18 0 C18.33 1.32 18.66 2.64 19 4 C12.73 4 6.46 4 0 4 C0 2.68 0 1.36 0 0 Z " fill="#EFF0F0" transform="translate(120,40)"/>
</svg>
