<?xml version="1.0" encoding="UTF-8"?>
<svg version="1.1" viewBox="0 0 2048 1536" width="3840" height="2880" xmlns="http://www.w3.org/2000/svg">
<path transform="translate(191)" d="m0 0h38l26 4 24 7 21 9 17 9 12 8 19 14 21 16 19 14 21 16 19 14 21 16 19 14 21 16 19 14 21 16 19 14 21 16 19 14 21 16 19 14 21 16 19 14 21 16 19 14 21 16 19 14 21 16 19 14 21 16 19 14 21 16 19 14 21 16 19 14 21 16 19 14 21 16 19 14 21 16 14 10 5-2 21-16 19-14 21-16 19-14 21-16 19-14 21-16 19-14 21-16 19-14 21-16 19-14 21-16 19-14 21-16 19-14 21-16 19-14 21-16 19-14 21-16 19-14 21-16 19-14 21-16 19-14 21-16 19-14 21-16 19-14 21-16 19-14 21-16 19-14 18-13 18-10 17-8 24-8 25-5 8-1h39l26 4 24 7 20 8 19 10 15 10 13 10 13 12 10 10 11 14 12 18 10 19 8 21 6 22 3 19 1 10v1214l-3 20-5 16-5 12-8 15-8 11-11 13-11 10-14 10-21 11-18 6-15 3-9 1h-337l-1-790-8 6-19 14-21 16-19 14-21 16-19 14-21 16-19 14-21 16-19 14-21 16-19 14-21 16-19 14-21 16-19 14-21 16-19 14-21 16-19 14-21 16-19 14-21 16-19 14-21 16-19 14-21 16-19 14-9 7-5-1-18-14-14-10-18-14-14-10-13-10-476-357-2-1-1 790h-337l-20-3-16-5-12-5-15-8-11-8-13-11-10-11-10-14-11-21-6-18-3-15-1-8v-1215l3-24 6-24 7-19 9-19 10-16 12-16 12-13 11-11 14-11 15-10 16-9 20-9 22-7 25-5z" fill="#E84134"/>
<path transform="translate(0,396)" d="m0 0 9 6 21 16 19 14 21 16 19 14 21 16 19 14 21 16 19 14 21 16 19 14 21 16 19 14 21 16 19 14 21 16 19 14 21 16 19 14 21 16 19 14 21 16 19 14 17 13-1 791h-337l-20-3-16-5-12-5-15-8-11-8-13-11-10-11-10-14-11-21-6-18-3-15-1-8z" fill="#4285F4"/>
<path transform="translate(2047,396)" d="m0 0h1v1012l-3 20-5 16-5 12-8 15-8 11-11 13-11 10-14 10-21 11-18 6-15 3-9 1h-337l-1-791 18-14 19-14 21-16 19-14 21-16 19-14 21-16 19-14 21-16 19-14 21-16 19-14 21-16 19-14 21-16 19-14 21-16 19-14 21-16 19-14 21-16 19-14 21-16z" fill="#34A853"/>
<path transform="translate(191)" d="m0 0h38l26 4 24 7 21 9 17 9 12 8 19 14 21 16 19 14 21 16 19 14 21 16 16 12v605l-7-4-18-14-19-14-21-16-19-14-21-16-19-14-21-16-19-14-21-16-19-14-21-16-19-14-21-16-19-14-21-16-19-14-21-16-19-14-21-16-19-14-21-16-19-14-21-16v-202l3-24 6-24 7-19 9-19 10-16 12-16 12-13 11-11 14-11 15-10 16-9 20-9 22-7 25-5z" fill="#C5221F"/>
<path transform="translate(1818)" d="m0 0h39l26 4 24 7 20 8 19 10 15 10 13 10 13 12 10 10 11 14 12 18 10 19 8 21 6 22 3 19 1 10v202l-18 14-19 14-21 16-19 14-21 16-19 14-21 16-19 14-21 16-19 14-21 16-19 14-21 16-19 14-21 16-19 14-21 16-19 14-21 16-19 14-21 16-19 14-21 16-7 4v-605l18-14 19-14 21-16 19-14 21-16 19-14 16-12 15-10 25-13 25-9 23-5z" fill="#FABC04"/>
</svg>
